<?xml version="1.0" encoding="UTF-8" standalone="no"?>
<svg
   xmlns:dc="http://purl.org/dc/elements/1.1/"
   xmlns:cc="http://creativecommons.org/ns#"
   xmlns:rdf="http://www.w3.org/1999/02/22-rdf-syntax-ns#"
   xmlns:svg="http://www.w3.org/2000/svg"
   xmlns="http://www.w3.org/2000/svg"
   xmlns:sodipodi="http://sodipodi.sourceforge.net/DTD/sodipodi-0.dtd"
   xmlns:inkscape="http://www.inkscape.org/namespaces/inkscape"
   viewBox="0 0 8 8"
   id="svg2"
   version="1.1"
   inkscape:version="0.48.5 r10040"
   width="100%"
   height="100%"
   sodipodi:docname="emblem-success.svg">
  <metadata
     id="metadata12">
    <rdf:RDF>
      <cc:Work
         rdf:about="">
        <dc:format>image/svg+xml</dc:format>
        <dc:type
           rdf:resource="http://purl.org/dc/dcmitype/StillImage" />
        <dc:title></dc:title>
      </cc:Work>
    </rdf:RDF>
  </metadata>
  <sodipodi:namedview
     pagecolor="#ffffff"
     bordercolor="#666666"
     borderopacity="1"
     objecttolerance="10"
     gridtolerance="10"
     guidetolerance="10"
     inkscape:pageopacity="0"
     inkscape:pageshadow="2"
     inkscape:window-width="1920"
     inkscape:window-height="1060"
     id="namedview10"
     showgrid="false"
     inkscape:zoom="29.5"
     inkscape:cx="4"
     inkscape:cy="4.0169492"
     inkscape:window-x="-2"
     inkscape:window-y="-3"
     inkscape:window-maximized="1"
     inkscape:current-layer="svg2" />
  <defs
     id="defs3051">
    <style
       type="text/css"
       id="current-color-scheme">
      .ColorScheme-PositiveText {
        color:#27ae60;
      }
      </style>
  </defs>
  <path
     style="fill:currentColor;fill-opacity:1;stroke:none"
     class="ColorScheme-PositiveText"
     d="M 4 0 C 1.784 0 0 1.784 0 4 C 0 6.216 1.784 8 4 8 C 6.216 8 8 6.216 8 4 C 8 1.784 6.216 0 4 0 z "
     id="path6" />
  <path
     style="fill:#ffffff;fill-opacity:1;stroke:none"
     d="M 6 2 L 3 5 L 2 4 L 1 5 L 2 6 L 3 7 L 7 3 L 6 2 z "
     id="path8" />
  <path
     style="fill:#ffd42a;fill-opacity:0.94117647000000004;stroke:#000000;stroke-width:0.03389831000000000;stroke-opacity:1"
     d="M 3.3232154,7.9242607 C 1.7484941,7.6251271 0.55453708,6.5163227 0.13835987,4.9665485 0.05799792,4.6672939 0.04884008,4.5726417 0.0471396,4.0237288 0.0451555,3.3832678 0.08992259,3.0957175 0.26471592,2.6261812 0.89372244,0.93652085 2.5766492,-0.12563207 4.3576271,0.04300418 5.1376464,0.11686222 5.7769136,0.36446515 6.4033722,0.83536851 8.1559719,2.1527823 8.4949549,4.6703692 7.1555471,6.4216864 6.6061339,7.1400614 5.8250061,7.6445356 4.9084746,7.8729092 4.5347946,7.9660197 3.6875275,7.9934651 3.3232154,7.9242607 l 0,0 z M 6.5186969,2.4814089 6.0107349,1.9725985 4.5104525,3.4725966 3.0101703,4.9725949 2.5104404,4.4728651 2.0107105,3.9731349 1.4933899,4.4896481 0.97606936,5.006161 1.9845212,6.0150332 2.9929729,7.0239054 5.0098159,5.0070624 7.026659,2.9902192 6.5186969,2.4814089 z"
     id="path2989"
     inkscape:connector-curvature="0" />
</svg>
