<?xml version="1.0" encoding="UTF-8" standalone="no"?>
<!-- Created with Inkscape (http://www.inkscape.org/) -->

<svg
   xmlns:dc="http://purl.org/dc/elements/1.1/"
   xmlns:cc="http://creativecommons.org/ns#"
   xmlns:rdf="http://www.w3.org/1999/02/22-rdf-syntax-ns#"
   xmlns:svg="http://www.w3.org/2000/svg"
   xmlns="http://www.w3.org/2000/svg"
   xmlns:sodipodi="http://sodipodi.sourceforge.net/DTD/sodipodi-0.dtd"
   xmlns:inkscape="http://www.inkscape.org/namespaces/inkscape"
   width="48px"
   height="48px"
   id="svg3020"
   version="1.1"
   inkscape:version="0.48.5 r10040"
   inkscape:export-filename="/home/aheinecke/arbeit/kf5/src/gpgol/src/icons/level-1-enc.png"
   inkscape:export-xdpi="75"
   inkscape:export-ydpi="75"
   sodipodi:docname="level-1-enc.svg">
  <defs
     id="defs3022">
    <style
       id="current-color-scheme"
       type="text/css">
      .ColorScheme-Highlight {
        color:#3daee9;
      }
      </style>
    <style
       id="current-color-scheme-7"
       type="text/css">
      .ColorScheme-Text {
        color:#4d4d4d;
      }
      </style>
    <style
       id="current-color-scheme-6"
       type="text/css">
      .ColorScheme-Highlight {
        color:#3daee9;
      }
      </style>
  </defs>
  <sodipodi:namedview
     id="base"
     pagecolor="#ffffff"
     bordercolor="#666666"
     borderopacity="1.0"
     inkscape:pageopacity="0.0"
     inkscape:pageshadow="2"
     inkscape:zoom="26.835933"
     inkscape:cx="32.000001"
     inkscape:cy="16.506905"
     inkscape:current-layer="layer1"
     showgrid="true"
     inkscape:grid-bbox="true"
     inkscape:document-units="px"
     inkscape:window-width="1920"
     inkscape:window-height="1060"
     inkscape:window-x="3838"
     inkscape:window-y="-3"
     inkscape:window-maximized="1">
    <inkscape:grid
       type="xygrid"
       id="grid5432" />
  </sodipodi:namedview>
  <metadata
     id="metadata3025">
    <rdf:RDF>
      <cc:Work
         rdf:about="">
        <dc:format>image/svg+xml</dc:format>
        <dc:type
           rdf:resource="http://purl.org/dc/dcmitype/StillImage" />
        <dc:title></dc:title>
      </cc:Work>
    </rdf:RDF>
  </metadata>
  <g
     id="layer1"
     inkscape:label="Layer 1"
     inkscape:groupmode="layer">
    <path
       id="path4195-5"
       d="m 4.735958,11.384869 -0.2180253,10.7903 5.1525285,-0.07202 -0.065299,-10.718276 C 9.5837615,7.8717472 12.545973,5.0105892 16.147949,5.0105892 c 3.601974,0 6.542785,2.8579738 6.542785,6.3742838 l 0.04141,10.733498 4.827806,0.203711 0,-10.937209 c 0,-6.027957 -5.120591,-10.92021125 -11.422324,-10.92021125 l 0,0 c -6.2982911,0 -11.4223248,4.90473425 -11.4223248,10.92021125"
       class="cls-3"
       inkscape:connector-curvature="0"
       style="fill:#ffffff;fill-opacity:1;stroke:#141414;stroke-width:0.92932558;stroke-miterlimit:4;stroke-opacity:1;stroke-dasharray:none"
       sodipodi:nodetypes="cccsssccsccc" />
    <rect
       style="fill:#ffffff;fill-opacity:1;stroke:#141414;stroke-width:0.92932558;stroke-miterlimit:4;stroke-opacity:1;stroke-dasharray:none"
       id="rect4451"
       width="29.070675"
       height="21.93219"
       x="0.96466279"
       y="22.103146" />
    <g
       id="g5434"
       transform="matrix(3.9845616,0,0,3.9843743,-11.829435,-4117.1768)"
       style="stroke:#000000;stroke-width:0.02432432;stroke-miterlimit:4;stroke-opacity:1;stroke-dasharray:none">
      <path
         id="path5436"
         class="ColorScheme-Highlight"
         d="m 15,1041.3622 a 4,4 0 0 1 -4,4 4,4 0 0 1 -4,-4 4,4 0 0 1 4,-4 4,4 0 0 1 4,4 z"
         style="color:#3daee9;fill:currentColor;fill-opacity:1;stroke:#000000;stroke-width:0.02432432;stroke-miterlimit:4;stroke-opacity:1;stroke-dasharray:none"
         inkscape:connector-curvature="0" />
      <path
         id="rect4241"
         transform="translate(7,1037.3622)"
         d="m 3.5,1 0,1 1,0 0,-1 -1,0 z m 0,2 0,4 1,0 0,-4 -1,0 z"
         style="fill:#ffffff;fill-opacity:1;stroke:#000000;stroke-width:0.02432432;stroke-miterlimit:4;stroke-opacity:1;stroke-dasharray:none"
         inkscape:connector-curvature="0" />
    </g>
  </g>
</svg>
